<?xml version="1.0" encoding="UTF-8" standalone="no"?>
<!DOCTYPE svg PUBLIC "-//W3C//DTD SVG 1.1//EN"
 "http://www.w3.org/Graphics/SVG/1.1/DTD/svg11.dtd">
<!-- Generated by graphviz version 5.0.0 (20220707.1540)
 -->
<!-- Title: dependencies Pages: 1 -->
<svg width="436pt" height="174pt"
 viewBox="0.00 0.00 436.00 173.80" xmlns="http://www.w3.org/2000/svg" xmlns:xlink="http://www.w3.org/1999/xlink">
<g id="graph0" class="graph" transform="scale(1 1) rotate(0) translate(4 169.8)">
<title>dependencies</title>
<polygon fill="white" stroke="transparent" points="-4,4 -4,-169.8 432,-169.8 432,4 -4,4"/>
<text text-anchor="middle" x="214" y="-8.2" font-family="sans-serif" font-size="14.00">dependencies</text>
<g id="clust1" class="cluster">
<title>cluster_AppModule</title>
<polygon fill="none" stroke="black" stroke-dasharray="1,5" points="8,-32.8 8,-157.8 420,-157.8 420,-32.8 8,-32.8"/>
</g>
<g id="clust3" class="cluster">
<title>cluster_AppModule_imports</title>
<polygon fill="none" stroke="black" points="154,-40.8 154,-92.8 412,-92.8 412,-40.8 154,-40.8"/>
</g>
<g id="clust6" class="cluster">
<title>cluster_AppModule_providers</title>
<polygon fill="none" stroke="black" points="16,-40.8 16,-92.8 146,-92.8 146,-40.8 16,-40.8"/>
</g>
<!-- ProductsModule -->
<g id="node1" class="node">
<title>ProductsModule</title>
<polygon fill="#8dd3c7" stroke="black" points="404.05,-84.8 401.05,-88.8 380.05,-88.8 377.05,-84.8 295.95,-84.8 295.95,-48.8 404.05,-48.8 404.05,-84.8"/>
<text text-anchor="middle" x="350" y="-62.6" font-family="Times,serif" font-size="14.00">ProductsModule</text>
</g>
<!-- AppModule -->
<g id="node3" class="node">
<title>AppModule</title>
<polygon fill="#8dd3c7" stroke="black" points="261.66,-149.8 258.66,-153.8 237.66,-153.8 234.66,-149.8 178.34,-149.8 178.34,-113.8 261.66,-113.8 261.66,-149.8"/>
<text text-anchor="middle" x="220" y="-127.6" font-family="Times,serif" font-size="14.00">AppModule</text>
</g>
<!-- ProductsModule&#45;&gt;AppModule -->
<g id="edge1" class="edge">
<title>ProductsModule&#45;&gt;AppModule</title>
<path fill="none" stroke="black" d="M350,-84.91C350,-104.14 350,-131.8 350,-131.8 350,-131.8 271.85,-131.8 271.85,-131.8"/>
<polygon fill="black" stroke="black" points="271.85,-128.3 261.85,-131.8 271.85,-135.3 271.85,-128.3"/>
</g>
<!-- categoriesModule -->
<g id="node2" class="node">
<title>categoriesModule</title>
<polygon fill="#8dd3c7" stroke="black" points="278.3,-84.8 275.3,-88.8 254.3,-88.8 251.3,-84.8 161.7,-84.8 161.7,-48.8 278.3,-48.8 278.3,-84.8"/>
<text text-anchor="middle" x="220" y="-62.6" font-family="Times,serif" font-size="14.00">categoriesModule</text>
</g>
<!-- categoriesModule&#45;&gt;AppModule -->
<g id="edge2" class="edge">
<title>categoriesModule&#45;&gt;AppModule</title>
<path fill="none" stroke="black" d="M220,-84.91C220,-84.91 220,-103.79 220,-103.79"/>
<polygon fill="black" stroke="black" points="216.5,-103.79 220,-113.79 223.5,-103.79 216.5,-103.79"/>
</g>
<!-- AppService -->
<g id="node4" class="node">
<title>AppService</title>
<ellipse fill="#fdb462" stroke="black" cx="81" cy="-66.8" rx="56.75" ry="18"/>
<text text-anchor="middle" x="81" y="-62.6" font-family="Times,serif" font-size="14.00">AppService</text>
</g>
<!-- AppService&#45;&gt;AppModule -->
<g id="edge3" class="edge">
<title>AppService&#45;&gt;AppModule</title>
<path fill="none" stroke="black" d="M81,-84.91C81,-104.14 81,-131.8 81,-131.8 81,-131.8 168.3,-131.8 168.3,-131.8"/>
<polygon fill="black" stroke="black" points="168.3,-135.3 178.3,-131.8 168.3,-128.3 168.3,-135.3"/>
</g>
</g>
</svg>
