<?xml version="1.0" encoding="UTF-8" standalone="no"?>
<!DOCTYPE svg PUBLIC "-//W3C//DTD SVG 1.1//EN"
 "http://www.w3.org/Graphics/SVG/1.1/DTD/svg11.dtd">
<!-- Generated by graphviz version 5.0.0 (20220707.1540)
 -->
<!-- Title: dependencies Pages: 1 -->
<svg width="456pt" height="250pt"
 viewBox="0.00 0.00 456.00 249.80" xmlns="http://www.w3.org/2000/svg" xmlns:xlink="http://www.w3.org/1999/xlink">
<g id="graph0" class="graph" transform="scale(1 1) rotate(0) translate(4 245.8)">
<title>dependencies</title>
<polygon fill="white" stroke="transparent" points="-4,4 -4,-245.8 452,-245.8 452,4 -4,4"/>
<text text-anchor="middle" x="224" y="-8.2" font-family="sans-serif" font-size="14.00">dependencies</text>
<g id="clust1" class="cluster">
<title>cluster_AppModule</title>
<polygon fill="none" stroke="black" stroke-dasharray="1,5" points="8,-108.8 8,-233.8 420,-233.8 420,-108.8 8,-108.8"/>
</g>
<g id="clust3" class="cluster">
<title>cluster_AppModule_imports</title>
<polygon fill="none" stroke="black" points="154,-116.8 154,-168.8 412,-168.8 412,-116.8 154,-116.8"/>
</g>
<g id="clust6" class="cluster">
<title>cluster_AppModule_providers</title>
<polygon fill="none" stroke="black" points="16,-116.8 16,-168.8 146,-168.8 146,-116.8 16,-116.8"/>
</g>
<g id="clust13" class="cluster">
<title>cluster_ProductsModule</title>
<polygon fill="none" stroke="black" stroke-dasharray="1,5" points="260,-32.8 260,-100.8 440,-100.8 440,-32.8 260,-32.8"/>
</g>
<g id="clust18" class="cluster">
<title>cluster_ProductsModule_providers</title>
<polygon fill="none" stroke="black" points="268,-40.8 268,-92.8 432,-92.8 432,-40.8 268,-40.8"/>
</g>
<!-- ProductsModule -->
<g id="node1" class="node">
<title>ProductsModule</title>
<polygon fill="#8dd3c7" stroke="black" points="404.05,-160.8 401.05,-164.8 380.05,-164.8 377.05,-160.8 295.95,-160.8 295.95,-124.8 404.05,-124.8 404.05,-160.8"/>
<text text-anchor="middle" x="350" y="-138.6" font-family="Times,serif" font-size="14.00">ProductsModule</text>
</g>
<!-- AppModule -->
<g id="node3" class="node">
<title>AppModule</title>
<polygon fill="#8dd3c7" stroke="black" points="261.66,-225.8 258.66,-229.8 237.66,-229.8 234.66,-225.8 178.34,-225.8 178.34,-189.8 261.66,-189.8 261.66,-225.8"/>
<text text-anchor="middle" x="220" y="-203.6" font-family="Times,serif" font-size="14.00">AppModule</text>
</g>
<!-- ProductsModule&#45;&gt;AppModule -->
<g id="edge1" class="edge">
<title>ProductsModule&#45;&gt;AppModule</title>
<path fill="none" stroke="black" d="M350,-160.91C350,-180.14 350,-207.8 350,-207.8 350,-207.8 271.85,-207.8 271.85,-207.8"/>
<polygon fill="black" stroke="black" points="271.85,-204.3 261.85,-207.8 271.85,-211.3 271.85,-204.3"/>
</g>
<!-- categoriesModule -->
<g id="node2" class="node">
<title>categoriesModule</title>
<polygon fill="#8dd3c7" stroke="black" points="278.3,-160.8 275.3,-164.8 254.3,-164.8 251.3,-160.8 161.7,-160.8 161.7,-124.8 278.3,-124.8 278.3,-160.8"/>
<text text-anchor="middle" x="220" y="-138.6" font-family="Times,serif" font-size="14.00">categoriesModule</text>
</g>
<!-- categoriesModule&#45;&gt;AppModule -->
<g id="edge2" class="edge">
<title>categoriesModule&#45;&gt;AppModule</title>
<path fill="none" stroke="black" d="M220,-160.91C220,-160.91 220,-179.79 220,-179.79"/>
<polygon fill="black" stroke="black" points="216.5,-179.79 220,-189.79 223.5,-179.79 216.5,-179.79"/>
</g>
<!-- AppService -->
<g id="node4" class="node">
<title>AppService</title>
<ellipse fill="#fdb462" stroke="black" cx="81" cy="-142.8" rx="56.75" ry="18"/>
<text text-anchor="middle" x="81" y="-138.6" font-family="Times,serif" font-size="14.00">AppService</text>
</g>
<!-- AppService&#45;&gt;AppModule -->
<g id="edge3" class="edge">
<title>AppService&#45;&gt;AppModule</title>
<path fill="none" stroke="black" d="M81,-160.91C81,-180.14 81,-207.8 81,-207.8 81,-207.8 168.3,-207.8 168.3,-207.8"/>
<polygon fill="black" stroke="black" points="168.3,-211.3 178.3,-207.8 168.3,-204.3 168.3,-211.3"/>
</g>
<!-- ProductsService -->
<g id="node5" class="node">
<title>ProductsService</title>
<ellipse fill="#fdb462" stroke="black" cx="350" cy="-66.8" rx="73.59" ry="18"/>
<text text-anchor="middle" x="350" y="-62.6" font-family="Times,serif" font-size="14.00">ProductsService</text>
</g>
<!-- ProductsService&#45;&gt;ProductsModule -->
<g id="edge4" class="edge">
<title>ProductsService&#45;&gt;ProductsModule</title>
<path fill="none" stroke="black" d="M350,-84.81C350,-84.81 350,-114.65 350,-114.65"/>
<polygon fill="black" stroke="black" points="346.5,-114.65 350,-124.65 353.5,-114.65 346.5,-114.65"/>
</g>
</g>
</svg>
